{"title":"Spawn Director's Cut (1997) BRrip 720p x264 Dual Audio [Eng-Hind","uid":10668159,"size":1538005217,"categoryP":"video","categoryS":"hd___movies","magnet":"?xt=urn:btih:b92f19f45830099b40bc1fb877f35aa3ab89bf79&amp;dn=Spawn+Director%27s+Cut+%281997%29+BRrip+720p+x264+Dual+Audio+%5BEng-Hind&amp;tr=udp%3A%2F%2Ftracker.openbittorrent.com%3A80&amp;tr=udp%3A%2F%2Fopen.demonii.com%3A1337&amp;tr=udp%3A%2F%2Ftracker.coppersurfer.tk%3A6969&amp;tr=udp%3A%2F%2Fexodus.desync.com%3A6969","seeders":4,"leechers":4,"uploader":"Xdesiars","files":4,"time":1406835785,"description":"Format                                   : Matroska\nFormat version                           : Version 2\nFile size                                : 1.41 GiB\nDuration                                 : 1h 38mn\nOverall bit rate                         : 2 045 Kbps\nMovie name                               : Spawn (1998) by XdesiArsenal [ExD-XMR]\nEncoded date                             : UTC 2014-07-31 16:27:12\nWriting application                      : mkvmerge v5.0.1 ('Es ist Sommer') built on Nov 23 2011 20:48:57\nWriting library                          : libebml v1.2.2 + libmatroska v1.3.0\n\nVideo\nID                                       : 1\nFormat                                   : AVC\nFormat/Info                              : Advanced Video Codec\nFormat profile                           : &lt;a class=&quot;__cf_email__&quot; href=&quot;/cdn-cgi/l/email-protection&quot; data-cfemail=&quot;034e626a6d434f302d32&quot;&gt;[email&amp;#160;protected]&lt;/a&gt;&lt;script cf-hash='f9e31' type=&quot;text/javascript&quot;&gt;\n/* &lt;![CDATA[ */!function(){try{var t=&quot;currentScript&quot;in document?document.currentScript:function(){for(var t=document.getElementsByTagName(&quot;script&quot;),e=t.length;e--;)if(t[e].getAttribute(&quot;cf-hash&quot;))return t[e]}();if(t&amp;&amp;t.previousSibling){var e,r,n,i,c=t.previousSibling,a=c.getAttribute(&quot;data-cfemail&quot;);if(a){for(e=&quot;&quot;,r=parseInt(a.substr(0,2),16),n=2;a.length-n;n+=2)i=parseInt(a.substr(n,2),16)^r,e+=String.fromCharCode(i);e=document.createTextNode(e),c.parentNode.replaceChild(e,c)}}}catch(u){}}();/* ]]&gt; */&lt;/script&gt;\nFormat settings, CABAC                   : Yes\nFormat settings, ReFrames                : 4 frames\nMuxing mode                              : Header stripping\nCodec ID                                 : V_MPEG4/ISO/AVC\nBit rate                                 : 1 685 Kbps\nWidth                                    : 1 280 pixels\nHeight                                   : 544 pixels\nDisplay aspect ratio                     : 16:9\nFrame rate mode                          : Variable\nColor space                              : YUV\nChroma subsampling                       : 4:2:0\nBit depth                                : 8 bits\nScan type                                : Progressive\nTitle                                    : Spawn (1998) by XdesiArsenal [ExD-XMR]\nWriting library                          : x264 core 112\nEncoding settings                        : cabac=1 / ref=2 / deblock=1:0:0 / analyse=0x1:0x111 / me=hex / subme=6 / psy=1 / psy_rd=1.00:0.00 / mixed_ref=0 / me_range=16 / chroma_me=1 / trellis=0 / 8x8dct=0 / cqm=0 / deadzone=21,11 / fast_pskip=1 / chroma_qp_offset=-2 / threads=3 / sliced_threads=0 / nr=0 / decimate=1 / interlaced=0 / constrained_intra=0 / bframes=2 / b_pyramid=2 / b_adapt=1 / b_bias=0 / direct=1 / weightb=0 / open_gop=0 / weightp=2 / keyint=240 / keyint_min=23 / scenecut=40 / intra_refresh=0 / rc_lookahead=40 / rc=crf / mbtree=1 / crf=23.0 / qcomp=0.60 / qpmin=3 / qpmax=51 / qpstep=4 / ip_ratio=1.40 / aq=1:1.00\nLanguage                                 : English\nDefault                                  : No\nForced                                   : No\nColor primaries                          : BT.709\nTransfer characteristics                 : BT.709\nMatrix coefficients                      : BT.709\n\nAudio #1\nID                                       : 2\nFormat                                   : AC-3\nFormat/Info                              : Audio Coding 3\nMode extension                           : CM (complete main)\nFormat settings, Endianness              : Big\nMuxing mode                              : Header stripping\nCodec ID                                 : A_AC3\nDuration                                 : 1h 38mn\nBit rate mode                            : Constant\nBit rate                                 : 160 Kbps\nChannel(s)                               : 2 channels\nChannel positions                        : Front: L R\nSampling rate                            : 48.0 KHz\nBit depth                                : 16 bits\nCompression mode                         : Lossy\nStream size                              : 113 MiB (8%)\nTitle                                    : XdesiArsenal\nLanguage                                 : English\nDefault                                  : No\nForced                                   : No\n\nAudio #2\nID                                       : 3\nFormat                                   : AC-3\nFormat/Info                              : Audio Coding 3\nMode extension                           : CM (complete main)\nFormat settings, Endianness              : Big\nMuxing mode                              : Header stripping\nCodec ID                                 : A_AC3\nDuration                                 : 1h 38mn\nBit rate mode                            : Constant\nBit rate                                 : 160 Kbps\nChannel(s)                               : 2 channels\nChannel positions                        : Front: L R\nSampling rate                            : 48.0 KHz\nBit depth                                : 16 bits\nCompression mode                         : Lossy\nDelay relative to video                  : 4s 500ms\nStream size                              : 113 MiB (8%)\nTitle                                    : XdesiArsenal\nLanguage                                 : Hindi\nDefault                                  : No\nForced                                   : No\n\nMenu\n00:00:00.000                             : en:Chapter 1\n00:03:24.240                             : en:Chapter 2\n00:06:20.853                             : en:Chapter 3\n00:08:03.163                             : en:Chapter 4\n00:11:28.660                             : en:Chapter 5\n00:14:37.100                             : en:Chapter 6\n00:18:34.535                             : en:Chapter 7\n00:22:27.755                             : en:Chapter 8\n00:26:49.477                             : en:Chapter 9\n00:31:24.140                             : en:Chapter 10\n00:33:03.239                             : en:Chapter 11\n00:37:40.846                             : en:Chapter 12\n00:45:23.108                             : en:Chapter 13\n00:47:59.660                             : en:Chapter 14\n00:52:19.503                             : en:Chapter 15\n00:56:03.919                             : en:Chapter 16\n01:04:19.556                             : en:Chapter 17\n01:07:48.994                             : en:Chapter 18\n01:09:50.740                             : en:Chapter 19\n01:12:35.947                             : en:Chapter 20\n01:16:44.567                             : en:Chapter 21\n01:22:42.595                             : en:Chapter 22\n01:26:15.035                             : en:Chapter 23\n01:31:56.827                             : en:Chapter 24\n","torrent":{"xt":"urn:btih:b92f19f45830099b40bc1fb877f35aa3ab89bf79","amp;dn":"Spawn+Director%27s+Cut+%281997%29+BRrip+720p+x264+Dual+Audio+%5BEng-Hind","amp;tr":["udp%3A%2F%2Ftracker.openbittorrent.com%3A80","udp%3A%2F%2Fopen.demonii.com%3A1337","udp%3A%2F%2Ftracker.coppersurfer.tk%3A6969","udp%3A%2F%2Fexodus.desync.com%3A6969"],"infoHash":"b92f19f45830099b40bc1fb877f35aa3ab89bf79","infoHashBuffer":{"type":"Buffer","data":[185,47,25,244,88,48,9,155,64,188,31,184,119,243,90,163,171,137,191,121]},"announce":[],"urlList":[]}}